<svg xmlns="http://www.w3.org/2000/svg" viewBox="0 0 1000 500" width="1000" height="500">
  <defs>
    <linearGradient id="g" x1="0" x2="1" y1="0" y2="1">
      <stop offset="0" stop-color="#1a1f2e"/>
      <stop offset="1" stop-color="#0f121a"/>
    </linearGradient>
  </defs>
  <rect width="1000" height="500" fill="#07090f"/>
  <g fill="url(#g)" stroke="#243044" stroke-width="1.2" opacity="0.95">
    <path d="M120 200 C90 150 140 110 200 120 C260 130 280 170 270 220 C265 260 220 280 170 270 C130 260 110 230 120 200Z"/>
    <path d="M300 100 C380 80 460 120 500 180 C520 230 480 280 420 290 C340 300 280 260 260 200 C250 150 270 110 300 100Z"/>
    <path d="M520 120 C600 90 700 110 760 160 C820 210 800 280 720 300 C640 315 560 280 530 220 C510 170 510 140 520 120Z"/>
    <path d="M780 180 C860 160 920 200 930 260 C940 320 880 360 800 350 C740 345 720 300 740 250 C755 210 760 190 780 180Z"/>
    <path d="M200 300 C260 280 340 300 380 350 C400 390 360 430 300 440 C220 450 160 410 150 360 C145 330 170 310 200 300Z"/>
    <path d="M420 300 C500 280 580 300 620 360 C640 400 600 440 520 450 C440 455 380 420 370 370 C365 330 390 310 420 300Z"/>
    <path d="M640 320 C720 300 820 330 860 390 C880 430 840 460 760 465 C680 468 620 430 610 380 C605 345 620 328 640 320Z"/>
  </g>
</svg>
