<svg xmlns="http://www.w3.org/2000/svg" viewBox="0 0 640 640" preserveAspectRatio="xMidYMid meet">
  <g transform="translate(0,640) scale(0.1,-0.1)" fill="#000000" stroke="none">
    <path d="M0 3200 l0 -3200 3200 0 3200 0 0 3200 0 3200 -3200 0 -3200 0 0 -3200z m3308 1824 c72 -30 84 -46 287 -399 54 -93 121 -210 150 -260 29 -49 148 -256 265 -460 117 -203 225 -390 240 -415 15 -25 40 -67 55 -95 15 -27 86 -151 158 -275 291 -502 294 -508 303 -623 16 -196 -97 -393 -276 -480 -41 -21 -99 -42 -129 -47 -34 -6 -459 -10 -1140 -10 -1189 0 -1138 -2 -1259 59 -94 48 -164 118 -210 213 -96 194 -79 337 67 582 26 44 111 189 186 321 146 254 365 632 557 965 30 52 108 187 173 300 65 113 139 241 165 285 25 44 68 118 95 165 75 131 94 151 164 176 49 18 104 17 149 -2z"/>
    <path d="M2973 4133 c-34 -65 -93 -179 -131 -254 -68 -130 -160 -298 -527 -954 -259 -462 -248 -441 -242 -482 4 -19 14 -45 24 -56 41 -45 57 -47 513 -47 l430 0 0 955 c0 525 -1 955 -3 955 -2 0 -31 -53 -64 -117z"/>
    <path d="M3420 3298 l0 -958 430 0 c469 0 481 1 516 56 42 64 39 70 -444 929 -46 83 -115 204 -152 270 -58 103 -126 233 -294 560 -20 39 -40 77 -46 85 -6 10 -10 -302 -10 -942z"/>
  </g>
</svg>
